<mxfile host="app.diagrams.net" modified="2024-04-23T02:00:39.371Z" agent="Mozilla/5.0 (Windows NT 10.0; Win64; x64) AppleWebKit/537.36 (KHTML, like Gecko) Chrome/124.0.0.0 Safari/537.36" etag="XcYZH962z4CwSQAPmnKH" version="24.2.8" type="device">
  <diagram name="Page-1" id="Ws43v4xMcSeNZ-AjbukI">
    <mxGraphModel dx="1434" dy="772" grid="1" gridSize="10" guides="1" tooltips="1" connect="1" arrows="1" fold="1" page="1" pageScale="1" pageWidth="850" pageHeight="1100" math="0" shadow="0">
      <root>
        <mxCell id="0" />
        <mxCell id="1" parent="0" />
        <object label="Table" pn="STRING" description="STRING" rev="STRING" status="INT" pref="INT" ecn="STRING" oh="INT" cost="FLOAT" type="INT" drawing="STRING[]" assemby="STRING[]" used="STRING[]" vendor="STRING[]" id="ZwdnJ1wMJjM-HQ86J2oT-1">
          <mxCell style="shape=table;startSize=20;container=1;collapsible=1;childLayout=tableLayout;fixedRows=1;rowLines=0;fontStyle=1;align=center;resizeLast=1;html=1;" vertex="1" parent="1">
            <mxGeometry x="290" y="160" width="180" height="130" as="geometry" />
          </mxCell>
        </object>
        <mxCell id="ZwdnJ1wMJjM-HQ86J2oT-2" value="" style="shape=tableRow;horizontal=0;startSize=0;swimlaneHead=0;swimlaneBody=0;fillColor=none;collapsible=0;dropTarget=0;points=[[0,0.5],[1,0.5]];portConstraint=eastwest;top=0;left=0;right=0;bottom=1;" vertex="1" parent="ZwdnJ1wMJjM-HQ86J2oT-1">
          <mxGeometry y="20" width="180" height="30" as="geometry" />
        </mxCell>
        <mxCell id="ZwdnJ1wMJjM-HQ86J2oT-3" value="PK" style="shape=partialRectangle;connectable=0;fillColor=none;top=0;left=0;bottom=0;right=0;fontStyle=1;overflow=hidden;whiteSpace=wrap;html=1;" vertex="1" parent="ZwdnJ1wMJjM-HQ86J2oT-2">
          <mxGeometry width="30" height="30" as="geometry">
            <mxRectangle width="30" height="30" as="alternateBounds" />
          </mxGeometry>
        </mxCell>
        <mxCell id="ZwdnJ1wMJjM-HQ86J2oT-4" value="UniqueID" style="shape=partialRectangle;connectable=0;fillColor=none;top=0;left=0;bottom=0;right=0;align=left;spacingLeft=6;fontStyle=5;overflow=hidden;whiteSpace=wrap;html=1;" vertex="1" parent="ZwdnJ1wMJjM-HQ86J2oT-2">
          <mxGeometry x="30" width="150" height="30" as="geometry">
            <mxRectangle width="150" height="30" as="alternateBounds" />
          </mxGeometry>
        </mxCell>
        <mxCell id="ZwdnJ1wMJjM-HQ86J2oT-5" value="" style="shape=tableRow;horizontal=0;startSize=0;swimlaneHead=0;swimlaneBody=0;fillColor=none;collapsible=0;dropTarget=0;points=[[0,0.5],[1,0.5]];portConstraint=eastwest;top=0;left=0;right=0;bottom=0;" vertex="1" parent="ZwdnJ1wMJjM-HQ86J2oT-1">
          <mxGeometry y="50" width="180" height="20" as="geometry" />
        </mxCell>
        <mxCell id="ZwdnJ1wMJjM-HQ86J2oT-6" value="" style="shape=partialRectangle;connectable=0;fillColor=none;top=0;left=0;bottom=0;right=0;editable=1;overflow=hidden;whiteSpace=wrap;html=1;" vertex="1" parent="ZwdnJ1wMJjM-HQ86J2oT-5">
          <mxGeometry width="30" height="20" as="geometry">
            <mxRectangle width="30" height="20" as="alternateBounds" />
          </mxGeometry>
        </mxCell>
        <mxCell id="ZwdnJ1wMJjM-HQ86J2oT-7" value="Row 1" style="shape=partialRectangle;connectable=0;fillColor=none;top=0;left=0;bottom=0;right=0;align=left;spacingLeft=6;overflow=hidden;whiteSpace=wrap;html=1;" vertex="1" parent="ZwdnJ1wMJjM-HQ86J2oT-5">
          <mxGeometry x="30" width="150" height="20" as="geometry">
            <mxRectangle width="150" height="20" as="alternateBounds" />
          </mxGeometry>
        </mxCell>
        <mxCell id="ZwdnJ1wMJjM-HQ86J2oT-8" value="" style="shape=tableRow;horizontal=0;startSize=0;swimlaneHead=0;swimlaneBody=0;fillColor=none;collapsible=0;dropTarget=0;points=[[0,0.5],[1,0.5]];portConstraint=eastwest;top=0;left=0;right=0;bottom=0;" vertex="1" parent="ZwdnJ1wMJjM-HQ86J2oT-1">
          <mxGeometry y="70" width="180" height="20" as="geometry" />
        </mxCell>
        <mxCell id="ZwdnJ1wMJjM-HQ86J2oT-9" value="" style="shape=partialRectangle;connectable=0;fillColor=none;top=0;left=0;bottom=0;right=0;editable=1;overflow=hidden;whiteSpace=wrap;html=1;" vertex="1" parent="ZwdnJ1wMJjM-HQ86J2oT-8">
          <mxGeometry width="30" height="20" as="geometry">
            <mxRectangle width="30" height="20" as="alternateBounds" />
          </mxGeometry>
        </mxCell>
        <mxCell id="ZwdnJ1wMJjM-HQ86J2oT-10" value="Row 2" style="shape=partialRectangle;connectable=0;fillColor=none;top=0;left=0;bottom=0;right=0;align=left;spacingLeft=6;overflow=hidden;whiteSpace=wrap;html=1;" vertex="1" parent="ZwdnJ1wMJjM-HQ86J2oT-8">
          <mxGeometry x="30" width="150" height="20" as="geometry">
            <mxRectangle width="150" height="20" as="alternateBounds" />
          </mxGeometry>
        </mxCell>
        <mxCell id="ZwdnJ1wMJjM-HQ86J2oT-11" value="" style="shape=tableRow;horizontal=0;startSize=0;swimlaneHead=0;swimlaneBody=0;fillColor=none;collapsible=0;dropTarget=0;points=[[0,0.5],[1,0.5]];portConstraint=eastwest;top=0;left=0;right=0;bottom=0;" vertex="1" parent="ZwdnJ1wMJjM-HQ86J2oT-1">
          <mxGeometry y="90" width="180" height="30" as="geometry" />
        </mxCell>
        <mxCell id="ZwdnJ1wMJjM-HQ86J2oT-12" value="" style="shape=partialRectangle;connectable=0;fillColor=none;top=0;left=0;bottom=0;right=0;editable=1;overflow=hidden;whiteSpace=wrap;html=1;" vertex="1" parent="ZwdnJ1wMJjM-HQ86J2oT-11">
          <mxGeometry width="30" height="30" as="geometry">
            <mxRectangle width="30" height="30" as="alternateBounds" />
          </mxGeometry>
        </mxCell>
        <mxCell id="ZwdnJ1wMJjM-HQ86J2oT-13" value="Row 3" style="shape=partialRectangle;connectable=0;fillColor=none;top=0;left=0;bottom=0;right=0;align=left;spacingLeft=6;overflow=hidden;whiteSpace=wrap;html=1;" vertex="1" parent="ZwdnJ1wMJjM-HQ86J2oT-11">
          <mxGeometry x="30" width="150" height="30" as="geometry">
            <mxRectangle width="150" height="30" as="alternateBounds" />
          </mxGeometry>
        </mxCell>
        <mxCell id="ZwdnJ1wMJjM-HQ86J2oT-14" value="[&#xa;  {&#xa;    &quot;id&quot;: &quot;ZwdnJ1wMJjM-HQ86J2oT-1&quot;,&#xa;    &quot;label&quot;: &quot;Table&quot;,&#xa;    &quot;pn&quot;: &quot;STRING&quot;,&#xa;    &quot;description&quot;: &quot;STRING&quot;,&#xa;    &quot;rev&quot;: &quot;STRING&quot;,&#xa;    &quot;status&quot;: &quot;INT&quot;,&#xa;    &quot;pref&quot;: &quot;INT&quot;,&#xa;    &quot;ecn&quot;: &quot;STRING&quot;,&#xa;    &quot;oh&quot;: &quot;INT&quot;,&#xa;    &quot;cost&quot;: &quot;FLOAT&quot;,&#xa;    &quot;type&quot;: &quot;INT&quot;,&#xa;    &quot;drawing&quot;: &quot;STRING[]&quot;,&#xa;    &quot;assemby&quot;: &quot;STRING[]&quot;,&#xa;    &quot;used&quot;: &quot;STRING[]&quot;,&#xa;    &quot;vendor&quot;: &quot;STRING[]&quot;&#xa;  }&#xa;]" style="text;whiteSpace=wrap;html=1;" vertex="1" parent="1">
          <mxGeometry x="590" y="130" width="220" height="300" as="geometry" />
        </mxCell>
      </root>
    </mxGraphModel>
  </diagram>
</mxfile>
